<svg xmlns="http://www.w3.org/2000/svg" fill="none" viewBox="0 0 842 1216"><path fill="#EDB98A" fill-rule="evenodd" d="M659.933 699.977c-8.684-3.096-17.054-6.672-24.68-11.932-21.983-16.363-36.317-40.988-49.861-64.319-19.078-33.933-32.669-70.091-42.064-107.811-4.037-16.206-5.408-34.996-14.58-49.364-20.792-30.085-81.761-26.187-114.136-20.906-21.68 3.836-26.161 28.098-31.085 46.051-4.1 14.917-6.784 30.003-9.037 45.291-5.36 3.524-11.411 6.386-17.179 8.879-62.859 19.275-73.907 55.009-97.916 110.207-40.551 80.229-150.586 111.642-167.207 206.591-10.709 62.685 19.744 121.658 51.141 173.766 29.24 56.93 70.061 84.24 135.07 70.8 60.975-13.68 119.575-36.56 179.477-54.24 29.013-7.14 57.98-25.69 88.499-19.22 62.885 14.12 127.496 20.76 191.942 18.93 90.484 3.66 90.47-83.187 81.183-150.44-6.505-104.661-59.295-171.865-159.567-202.283Z" clip-rule="evenodd"/><path fill="#000" fill-rule="evenodd" d="M665.983 851.422c7.561 5 13.92 12.581 19.025 20.559a1972.89 1972.89 0 0 1-63.815-7.683c2.779-1.776 5.584-3.513 8.453-5.153 10.467-5.898 24.649-15.451 36.337-7.723ZM311.898 914.42c-3.905-1.529-5.416-7.483-6.938-10.896-4.772-10.703-9.127-21.588-13.658-32.395 17.204-4.904 33.934-10.345 51.756-12.959 19.163-2.808 38.609-3.488 57.949-2.857 39.174 1.278 77.984 7.68 116.498 14.545 38.469 6.857 76.936 13.445 115.674 18.615 37.953 5.065 76.026 8.772 114.17 12.026 7.411.633 19.768 3.298 25.728-2.534 4.719-4.619 4.872-13.138-1.033-16.893-3.678-2.341-9.007-2.375-13.209-2.915-5.292-.681-10.605-1.134-15.929-1.487-2.169-.143-4.338-.275-6.508-.407 17.417-6.567 35.608-10.148 54.49-9.15 1.068 6.487 5.879 13.161 8.512 18.511 4.598 9.34 8.182 18.793 10.535 28.949 4.918 21.228 5.132 43.26 3.743 64.911-1.276 18.052-4.017 38.016-18.177 50.806-10.721 9.68-25.847 13.26-39.88 14.39-16.31 1.31-32.872-.09-49.045-2.28-22.684-3.06-45.474-7.12-67.712-12.55-43.071-10.53-84.355-27.28-122.444-49.996-18.575-11.075-36.299-23.535-55.129-34.189-19.187-10.858-39.603-19.281-61.041-24.511-23.991-5.853-49.071-8.351-73.729-6.907-4.279.25-10.461 1.802-14.623.173Zm-27.802-10.868c2.521 8.181 4.45 17.522 9.831 24.396 5.33 6.812 13.371 9.216 21.701 9.822 10.044.729 20.206.262 30.272.636 20.645.767 41.007 4.12 60.743 10.271 18.392 5.733 35.465 14.675 51.911 24.595 15.208 9.174 29.97 19.023 45.183 28.168-4.049 1.86-8.052 3.86-12.077 5.61-8.442 3.67-16.936 7.21-25.468 10.65-16.825 6.8-33.721 13.44-50.79 19.6a1206.292 1206.292 0 0 1-104.807 32.54c-16.886 4.41-34.012 9.57-51.555 10.3-15.556.65-29.965-3.75-42.511-13-26.022-19.18-46.725-46.87-63.461-74.182-9.943-16.227-18.62-33.277-25.797-50.906a391.5 391.5 0 0 1-9.885-27.125c-1.39-4.3-2.708-8.624-3.956-12.968a406.841 406.841 0 0 1-1.596-5.744c26.609-8.12 53.534-15.45 81.091-19.519 14.713-2.173 29.622-3.273 44.496-3.113 7.383.079 14.762.478 22.106 1.24 3.953.41 7.89.938 11.81 1.592 1.62.269 3.285.667 4.955.96 2.551 8.741 5.123 17.475 7.804 26.177Zm550.042-34.754c1.434-2.901 2.039-5.755 2.553-8.913.392-2.409 1.432-5.8.521-8.928-1.02-3.503-3.799-6.636-5.794-9.624a9339.801 9339.801 0 0 1-19.766-29.762c-17.887-27.041-35.652-54.16-53.445-81.262-15.79-24.051-31.314-48.318-47.585-72.046-13.913-20.29-29.078-40.245-48.122-56.025-24.079-19.952-52.751-29.351-82.7-36.685-3.271-3.395-7.64-5.249-12.31-4.873-6.598-7.483-11.842-12.71-14.219-22.226-1.139-4.558-.782-17.365-5.221-20.062-5.273-3.204-8.027 1.036-9.481 5.816-4.865 15.99.719 37.488 13.569 53.505-5.414 18.711-12.592 45.303-25.397 60.293-13.712 16.051-32.675 21.047-53.135 21.376-39.018.628-77.995-13.873-107.756-39.005-9.046-7.638-17.447-16.169-25.048-25.242-5.701-6.807-12.445-17.312-16.905-25.252 0-3.095-3.654-6.33 33.54-8.83 37.193-2.5 40.014-53.427 40.841-60.358.672-5.628 3.53-14.364-.436-18.953-1.683-1.949-5.137-2.263-7.271-.939-4.024 2.499-5.346 8.889-6.611 13.228-1.772 6.079-7.565 43.806-18.542 48.174-5.139 2.045-11.033 2.083-16.469 2.461-6.713.469-13.44.812-20.126 1.593-2.466.288-5.156 1.086-7.589 1.109-1.583.015-3.216-.754-4.746-1.294-5.164-1.825-10.324-.456-15.644.259-47.036 6.321-95.467 20.748-135.587 46.707-35.362 22.88-60.275 55.785-76.714 94.257-16.773 39.262-26.387 81.719-34.444 123.515a892.782 892.782 0 0 0-7.081 42.19c-1.957 13.641-4.405 27.587-4.991 41.366-.232 5.452 1.07 10.517 3.076 15.497 2.258 5.605 7.595 7.815 12.714 10.432 11.237 5.748 23.09 10.206 35.304 13.363 7.461 13.573 13.74 27.676 18.786 42.313-1.872 3.709-1.911 9.248-2.271 12.853-.893 8.977-1.275 18.004-1.355 27.014-.161 18.08.926 36.14 1.778 54.18.864 18.31 3.736 90.53 4.204 99.35.364 6.85-.126 16.43 3.483 22.51 5.546 9.35 19.234 9.04 25.574 1.46 157.524 33.86 453.624 23.66 572.879 6.62 15.516-2.22 10.644.24 14.59-3.68 2.961-2.94 5.481-7.98 6.3-12.03 1.094-5.41-.672-10.3-3.768-14.68-3.255-4.6-3.848-12.05-5.057-17.52-2.859-12.93-4.28-69.72-5.616-76.01-.416-1.97-.819-4.04-1.305-6.11 21.875 2.07 44.668 2.07 65.479-5.25 11.801-4.15 22.807-10.66 31.279-19.97 10.258-11.26 15.965-25.45 18.9-40.25 3.787-19.094 4.591-38.869 3.847-58.276-1.034-22.936-4.838-46.195-14.28-67.254a35.203 35.203 0 0 0 7.57-10.132Z" clip-rule="evenodd"/><path fill="#EDB98A" fill-rule="evenodd" d="M634.529 304.003c-2.153-18.915.633-58.451.82-60.853 1.18-15.185-5.935-75.148-19.385-69.623-22.562-17.861-52.613-21.805-80.713-23.689-58.367-3.914-120.46 5.071-165.53 44.351-22.289 20.399-43.988 50.068-42.244 80.96-20.251 29.282-48.8 69.449-23.568 103.682 8.576 10.937 22.208 15.01 32.982 23.293 21.672 17.48 35.268 42.566 57.145 59.942 57.961 52.083 156.378 62.963 213.324 3.723 44.035-42.904 36.915-107.09 29.169-161.786-5.207-36.773 2.2 36.901-2 0Z" clip-rule="evenodd"/><path fill="#000" fill-rule="evenodd" d="M457.28 69.625c15.61-3.15 31.639-5.11 47.58-4.52l1.229.048c11.994.48 27.184 1.54 37.647 8.514.602-.604 1.57-.914 2.448-.495 12.434 5.935 26.11 10.226 39.202 14.49 13.032 4.243 26.552 7.044 40.211 8.173 5.139.425 9.537 5.974 6.283 10.951a219.086 219.086 0 0 0-2.279 3.585c1.256-.131 2.512-.266 3.768-.393 4.133-.416 8.262 3.995 8.017 8.019a74.223 74.223 0 0 1-.83 7.503c1.574-.033 3.139.203 4.651.842 7.656 3.233 7.123 12.352 6.55 19.29-.794 9.628-4.395 19.826-11.081 27.032 4.992 5.185 8.526 11.377 10.634 18.731 1.529 5.37 2.38 11.09 1.96 16.68l-.134 1.674c-.519 6.066-1.552 12.782-5.916 17.146-2.24 2.25-5 3.07-7.631 2.81 1.591 13.98 2.611 28.04 3.571 42.05l.45 6.696c2.142 32.38 3.751 64.971 3.33 97.404-.391 30.31-6.38 59.73-24.97 84.34-16.931 22.41-41.24 38.93-68.74 45.21-14.82 3.39-29.95 3.63-44.95 1.47-7.271-1.05-14.59-2.66-21.491-5.2-7.639-2.82-13.129-6.97-18.269-13.19-2.431-2.95-1.261-9.23 3.58-8.64 7.321.888 14.005 1.958 21.024 4.123l1.005.317c6.991 2.24 14.231 3.91 21.54 4.62 14.971 1.45 30.17-.01 44.511-4.55 23.35-7.4 43.46-23.89 56.35-44.61 15.3-24.56 17.03-52.44 16.809-80.68-.237-30.988-1.245-61.995-2.89-92.951l-.28-5.159c-.87-15.93-1.71-31.87-2.449-47.81-.23-5-.58-10.04-1.211-15.03-5.769-3.38-10.939-8.04-14.309-13.79-6.77 2.8-13.89 4.82-20.441 6.43-15.174 3.732-30.928 4.638-46.373 2.301a137.059 137.059 0 0 1-12.729 4.536 284.927 284.927 0 0 1-3.497 1.523c-10.401 4.45-20.951 8.22-31.93 10.98l-2.697.673c-5.778 1.424-12.054 2.827-18.203 3.267-1.01.39-2.1.72-3.291 1.01a53.78 53.78 0 0 1-17.149 1.31c-5.591-.47-9.631-6.12-6.551-11.41 2.25-3.86 4.521-7.71 6.811-11.55-7.97 3.32-16.2 6.08-24.5 8.42-8.38 2.36-16.88 4.35-25.391 6.18-4.55.97-9.119 1.83-13.659 2.8-3.25.69-8.24 1.05-10.891 3.19-2.929 2.35-3.759 7.83-4.87 11.21-1.46 4.39-2.83 8.8-4.08 13.26a274.297 274.297 0 0 0-6.109 27.05c-1.58 9.13-2.641 18.35-3.231 27.6-.589 9.24-.33 18.54-1.279 27.74-.511 4.88-5.75 7.39-9.62 3.98-.454-.4-.912-.804-1.365-1.213l-.675-.617c-3.311-3-6.521-6.18-9.17-9.76-.48-.66-.94-1.35-1.37-2.05-.07 0-.13-.02-.2-.07l-.735-.553c-8.087-6.019-21.599-13.868-29.485-3.867-2.513 3.186-3.8 7.243-4.867 11.156l-1.874 7.005c-1.212 4.572-2.353 9.17-3.02 13.849-1.51 10.48-.75 22.56 6.461 30.96 2.88 3.36 6.85 5.76 11.279 6.39 2.471.34 4.911-.08 7.361-.39 2.49-.31 4.889.19 7.38-.05 3.96-.39 5.69 4.35 4.21 7.33-.8 1.6-1.741 2.98-2.81 4.15.859.74 1.68 1.54 2.47 2.38 2.34.75 4.439 2.36 6.01 4.49 1.27 1.72 1.929 3.59 2.04 5.56.139.49.259.99.37 1.5l2.145 3.482c.472.764.942 1.518 1.414 2.258 5.46 8.6 11.521 15.88 19.051 22.74 7.25 6.6 15.119 12.51 21.93 19.59l.802.841c6.35 6.691 13.043 14.79 10.558 24.519-.64 2.5-4.131 4.3-6.41 2.61-7.33-5.44-11.021-14.06-17.24-20.66-6.401-6.8-13.491-12.91-19.91-19.69-6.071-6.4-10.861-13.65-14.47-21.63-1.441 1.59-3.54 2.72-6.45 3.16-5 .75-9.661-2.18-11.84-6.51-1.401.62-2.83 1.18-4.271 1.62-7.58 2.32-12.349-6.11-9.489-12.34 1.529-3.34 3.439-6.24 5.81-8.68-7.411-1.02-14.951-4.85-19.821-9.63-12.219-12.01-13.899-30.06-11.149-46.11 1.46-8.51 3.979-17.12 7.25-25.11.569-1.39 1.18-2.79 1.849-4.17-.37-.01-.75-.17-.99-.48-2.21-3.02-4.899-5.49-6.54-8.87-1.51-3.1-3.189-6.24-4.38-9.47-2.449-6.61-3.649-14.07-4.449-21.06-1.65-14.31-1.011-28.53 1.18-42.75 3.729-24.22 12.737-47.398 26.008-67.736a11.546 11.546 0 0 1-2.06-1.38l-.319-.278-.518-.468c-3.787-3.427-3.46-9.85 0-13.321l1.093-1.095c1.383-1.375 2.577-2.464 4.812-3.961.33-.221.667-.429 1.008-.623-1.17-2.162-1.576-4.69-.761-7.479 2.84-9.716 16.82-9.372 25.681-5.135 9.803-8.749 20.673-16.344 32.455-22.494 28.061-14.64 59.79-24.85 90.771-31.09Zm-145.05 255.9c5.24-1.71 12.2 1.88 16.91 4.04 5.97 2.74 11.05 6.79 15.97 11.07 2.45 2.14 2.889 5.64 2.28 8.63-.061.3-.12.61-.191.92-.65 3.19-4.21 5.7-7.36 5.61-6.59-.18-9.729-5.87-13.46-10.69-.439.78-.989 1.5-1.67 2.04l-.46.36c-1.548 1.179-3.254 2.121-5.3 2.03a9.853 9.853 0 0 1-4.12-1.11c-3.2-1.69-4.609-5.83-3.74-9.2.54-2.12 1.78-3.78 3.4-4.93l-.604-.413c-1.292-.899-2.47-1.847-3.389-3.246l-.207-.331h.08c-1-1.72-.349-4.06 1.861-4.78Z" clip-rule="evenodd"/><path fill="#000" fill-rule="evenodd" d="M580.042 429.159c-7.367 2.133-15.274 2.324-22.783.121-6.811-1.999-13.804-6.398-18.817-12.218-4.453-5.171-7.337-11.454-7.223-18.161a2.966 2.966 0 0 1 .708-1.902 3.312 3.312 0 0 1 1.766-1.06 3.234 3.234 0 0 1 2.064.18 2.733 2.733 0 0 1 1.361 1.338 174.4 174.4 0 0 0 2.308 2.978c6.194 7.649 12.192 13.364 21.506 15.414 5.053 1.113 10.1.62 14.731-1.078 4.957-1.817 9.439-5.011 12.95-9.1 1.587-1.847 3.461-2.601 5.292-2.614 2.077-.014 4.129.95 5.674 2.492 1.52 1.516 2.537 3.575 2.63 5.73.081 1.891-.536 3.866-2.177 5.628-5.406 5.804-12.411 10.057-19.99 12.252Zm-.228-95.792c7.552 4.59 19.058 15.293 10.934 26.673-9.562 10.033-23.33-1.471-30.114-6.674-6.291-4.032-13.359 6.338-7.522 11.047 49.024 36.295 68.919-29.846 30.522-36.443-4.228-.727-5.798 3.977-3.82 5.397Zm-70.639-20.197c-2.427-1.552-5.282-2.085-8.446-.645-2.473 1.124-6.81 4.873-9.828 9.8-2.065 3.372-3.529 7.326-3.224 11.446.071.957-.283 1.662-.84 2.184-.441.412-1.077.714-1.824.809a4.751 4.751 0 0 1-1.922-.172c-1.098-.343-1.679-1.056-1.898-1.637-2.113-5.612-1.203-11.875 1.165-17.525 3.197-7.625 9.001-14.012 12.804-16.072 6.508-3.525 14.185-3.687 20.702-.096 5.547 3.057 9.016 7.991 12.466 13.021.733 1.07 1.461 2.131 2.214 3.174 1.507 2.089 1.657 4.162 1.073 5.939-.646 1.968-2.296 3.629-4.358 4.499-1.906.804-4.118.917-6.076.091-1.654-.698-3.171-2.057-4.132-4.364-1.617-3.886-4.312-8.172-7.876-10.452Zm123.266 8.644c-1.662.866-2.963 1.128-4.807.575a6.833 6.833 0 0 1-2.816-1.682c-.782-.782-1.346-1.754-1.566-2.833-.539-2.663-1.996-5.155-4.071-6.779-1.775-1.389-4.014-2.125-6.498-1.71-2.681.448-5.234 2.167-6.993 4.194-.588.678-1.049 1.448-1.512 2.213-.867 1.431-1.709 2.761-2.904 3.811-.453.4-1.136.677-1.797.677a2.7 2.7 0 0 1-.801-.125c-2.668-2.677-3.181-4.709-3.095-6.724.09-2.112.923-4.252 2.269-6.247 3.157-4.682 9.153-8.521 13.198-9.391 5.541-1.19 11.043.239 15.455 3.333 4.539 3.184 7.902 8.128 8.951 13.699.252 1.342.145 2.79-.366 4.046-.499 1.227-1.369 2.278-2.647 2.943Zm-111.047-58.561c-3.325 3.239-7.26 3.741-11.241 4.187-2.212.251-3.978.452-5.716.844-4.776 1.079-9.498 2.702-13.805 5.041-4.503 2.445-9.41 5.393-12.94 9.17-.839.899-1.63 1.842-2.423 2.787a72.854 72.854 0 0 1-2.152 2.492c-.843.919-1.643 1.882-2.438 2.843-.492.81-.589 1.01-.689 1.217a27.97 27.97 0 0 1-.52 1.035 20.45 20.45 0 0 1-.922 1.583c-.554.931-.851 1.187-1.108 1.301-.426.19-.83.284-1.222.233-.367-.047-.714-.224-1.056-.513-1.707-1.442-2.21-3.809-2.158-6.322.078-3.813 1.484-8.034 2.781-10.629 3.014-6.03 7.194-12.298 12.221-16.798 5.736-5.137 12.012-9.026 19.22-11.706 4.479-1.666 9.665-3.195 14.545-3.002 3.513.139 6.866 1.183 9.636 3.791 1.7 1.601 2.516 3.878 2.516 6.153 0 2.32-.847 4.655-2.529 6.293Zm117.809 29.665a1.82 1.82 0 0 1-.83.728 1.936 1.936 0 0 1-2.073-.346 1.846 1.846 0 0 1-.553-.955c-2.207-9.696-6.494-16.91-15.643-21.561-4.5-2.289-9.675-3.743-14.574-4.902-1.424-.337-2.928-.555-4.443-.776-4.748-.694-9.53-1.487-12.625-5.325-1.865-2.312-2.648-5.268-2.206-7.972.417-2.546 1.905-4.88 4.609-6.279 6.732-3.481 15.099-.065 21.898 2.844.504.216.999.428 1.483.633 6.649 2.806 12.713 6.51 17.698 11.808 3.955 4.203 7.619 10.416 9.095 16.808 1.228 5.317.939 10.746-1.836 15.295Z" clip-rule="evenodd"/></svg>